<?xml version="1.0" encoding="UTF-8" standalone="no"?>
<!DOCTYPE svg PUBLIC "-//W3C//DTD SVG 1.1//EN"
 "http://www.w3.org/Graphics/SVG/1.1/DTD/svg11.dtd">
<!-- Generated by graphviz version 2.49.1 (20210923.0004)
 -->
<!-- Title: cpu_scheduling_algorithms/fcfs_scheduling.cpp Pages: 1 -->
<svg width="624pt" height="95pt"
 viewBox="0.00 0.00 623.50 95.00" xmlns="http://www.w3.org/2000/svg" xmlns:xlink="http://www.w3.org/1999/xlink">
<g id="graph0" class="graph" transform="scale(1 1) rotate(0) translate(4 91)">
<title>cpu_scheduling_algorithms/fcfs_scheduling.cpp</title>
<polygon fill="white" stroke="transparent" points="-4,4 -4,-91 619.5,-91 619.5,4 -4,4"/>
<!-- Node1 -->
<g id="node1" class="node">
<title>Node1</title>
<g id="a_node1"><a xlink:title="Implementation of FCFS CPU scheduling algorithm.">
<polygon fill="#bfbfbf" stroke="black" points="254.5,-56.5 254.5,-86.5 392.5,-86.5 392.5,-56.5 254.5,-56.5"/>
<text text-anchor="start" x="262.5" y="-74.5" font-family="Helvetica,sans-Serif" font-size="10.00">cpu_scheduling_algorithms</text>
<text text-anchor="middle" x="323.5" y="-63.5" font-family="Helvetica,sans-Serif" font-size="10.00">/fcfs_scheduling.cpp</text>
</a>
</g>
</g>
<!-- Node2 -->
<g id="node2" class="node">
<title>Node2</title>
<g id="a_node2"><a xlink:title=" ">
<polygon fill="white" stroke="#bfbfbf" points="0,-0.5 0,-19.5 55,-19.5 55,-0.5 0,-0.5"/>
<text text-anchor="middle" x="27.5" y="-7.5" font-family="Helvetica,sans-Serif" font-size="10.00">iostream</text>
</a>
</g>
</g>
<!-- Node1&#45;&gt;Node2 -->
<g id="edge1" class="edge">
<title>Node1&#45;&gt;Node2</title>
<path fill="none" stroke="midnightblue" d="M254.34,-57.91C204.41,-48.62 135.16,-35.3 65.22,-20.08"/>
<polygon fill="midnightblue" stroke="midnightblue" points="65.87,-16.64 55.35,-17.92 64.37,-23.48 65.87,-16.64"/>
</g>
<!-- Node3 -->
<g id="node3" class="node">
<title>Node3</title>
<g id="a_node3"><a xlink:title=" ">
<polygon fill="white" stroke="#bfbfbf" points="73.5,-0.5 73.5,-19.5 117.5,-19.5 117.5,-0.5 73.5,-0.5"/>
<text text-anchor="middle" x="95.5" y="-7.5" font-family="Helvetica,sans-Serif" font-size="10.00">vector</text>
</a>
</g>
</g>
<!-- Node1&#45;&gt;Node3 -->
<g id="edge2" class="edge">
<title>Node1&#45;&gt;Node3</title>
<path fill="none" stroke="midnightblue" d="M266.91,-56.5C229.77,-47.19 179.93,-34.49 127.62,-20.25"/>
<polygon fill="midnightblue" stroke="midnightblue" points="128.4,-16.83 117.83,-17.57 126.55,-23.59 128.4,-16.83"/>
</g>
<!-- Node4 -->
<g id="node4" class="node">
<title>Node4</title>
<g id="a_node4"><a xlink:title=" ">
<polygon fill="white" stroke="#bfbfbf" points="136,-0.5 136,-19.5 217,-19.5 217,-0.5 136,-0.5"/>
<text text-anchor="middle" x="176.5" y="-7.5" font-family="Helvetica,sans-Serif" font-size="10.00">unordered_set</text>
</a>
</g>
</g>
<!-- Node1&#45;&gt;Node4 -->
<g id="edge3" class="edge">
<title>Node1&#45;&gt;Node4</title>
<path fill="none" stroke="midnightblue" d="M288.66,-56.4C264,-46.42 231.21,-33.15 207.47,-23.53"/>
<polygon fill="midnightblue" stroke="midnightblue" points="208.47,-20.17 197.89,-19.66 205.85,-26.65 208.47,-20.17"/>
</g>
<!-- Node5 -->
<g id="node5" class="node">
<title>Node5</title>
<g id="a_node5"><a xlink:title=" ">
<polygon fill="white" stroke="#bfbfbf" points="235.5,-0.5 235.5,-19.5 279.5,-19.5 279.5,-0.5 235.5,-0.5"/>
<text text-anchor="middle" x="257.5" y="-7.5" font-family="Helvetica,sans-Serif" font-size="10.00">queue</text>
</a>
</g>
</g>
<!-- Node1&#45;&gt;Node5 -->
<g id="edge4" class="edge">
<title>Node1&#45;&gt;Node5</title>
<path fill="none" stroke="midnightblue" d="M307.86,-56.4C297.87,-47.4 284.92,-35.72 274.65,-26.47"/>
<polygon fill="midnightblue" stroke="midnightblue" points="276.87,-23.75 267.1,-19.66 272.19,-28.95 276.87,-23.75"/>
</g>
<!-- Node6 -->
<g id="node6" class="node">
<title>Node6</title>
<g id="a_node6"><a xlink:title=" ">
<polygon fill="white" stroke="#bfbfbf" points="297.5,-0.5 297.5,-19.5 349.5,-19.5 349.5,-0.5 297.5,-0.5"/>
<text text-anchor="middle" x="323.5" y="-7.5" font-family="Helvetica,sans-Serif" font-size="10.00">iomanip</text>
</a>
</g>
</g>
<!-- Node1&#45;&gt;Node6 -->
<g id="edge5" class="edge">
<title>Node1&#45;&gt;Node6</title>
<path fill="none" stroke="midnightblue" d="M323.5,-56.4C323.5,-48.47 323.5,-38.46 323.5,-29.86"/>
<polygon fill="midnightblue" stroke="midnightblue" points="327,-29.66 323.5,-19.66 320,-29.66 327,-29.66"/>
</g>
<!-- Node7 -->
<g id="node7" class="node">
<title>Node7</title>
<g id="a_node7"><a xlink:title=" ">
<polygon fill="white" stroke="#bfbfbf" points="368,-0.5 368,-19.5 413,-19.5 413,-0.5 368,-0.5"/>
<text text-anchor="middle" x="390.5" y="-7.5" font-family="Helvetica,sans-Serif" font-size="10.00">cstdlib</text>
</a>
</g>
</g>
<!-- Node1&#45;&gt;Node7 -->
<g id="edge6" class="edge">
<title>Node1&#45;&gt;Node7</title>
<path fill="none" stroke="midnightblue" d="M339.38,-56.4C349.52,-47.4 362.66,-35.72 373.09,-26.47"/>
<polygon fill="midnightblue" stroke="midnightblue" points="375.6,-28.92 380.75,-19.66 370.95,-23.68 375.6,-28.92"/>
</g>
<!-- Node8 -->
<g id="node8" class="node">
<title>Node8</title>
<g id="a_node8"><a xlink:title=" ">
<polygon fill="white" stroke="#bfbfbf" points="431.5,-0.5 431.5,-19.5 489.5,-19.5 489.5,-0.5 431.5,-0.5"/>
<text text-anchor="middle" x="460.5" y="-7.5" font-family="Helvetica,sans-Serif" font-size="10.00">algorithm</text>
</a>
</g>
</g>
<!-- Node1&#45;&gt;Node8 -->
<g id="edge7" class="edge">
<title>Node1&#45;&gt;Node8</title>
<path fill="none" stroke="midnightblue" d="M355.97,-56.4C378.85,-46.46 409.23,-33.26 431.34,-23.66"/>
<polygon fill="midnightblue" stroke="midnightblue" points="432.79,-26.85 440.57,-19.66 430,-20.43 432.79,-26.85"/>
</g>
<!-- Node9 -->
<g id="node9" class="node">
<title>Node9</title>
<g id="a_node9"><a xlink:title=" ">
<polygon fill="white" stroke="#bfbfbf" points="508,-0.5 508,-19.5 557,-19.5 557,-0.5 508,-0.5"/>
<text text-anchor="middle" x="532.5" y="-7.5" font-family="Helvetica,sans-Serif" font-size="10.00">cassert</text>
</a>
</g>
</g>
<!-- Node1&#45;&gt;Node9 -->
<g id="edge8" class="edge">
<title>Node1&#45;&gt;Node9</title>
<path fill="none" stroke="midnightblue" d="M372.77,-56.47C411.26,-45.51 463.8,-30.56 497.93,-20.84"/>
<polygon fill="midnightblue" stroke="midnightblue" points="499.24,-24.11 507.9,-18 497.32,-17.38 499.24,-24.11"/>
</g>
<!-- Node10 -->
<g id="node10" class="node">
<title>Node10</title>
<g id="a_node10"><a xlink:title=" ">
<polygon fill="white" stroke="#bfbfbf" points="575.5,-0.5 575.5,-19.5 615.5,-19.5 615.5,-0.5 575.5,-0.5"/>
<text text-anchor="middle" x="595.5" y="-7.5" font-family="Helvetica,sans-Serif" font-size="10.00">ctime</text>
</a>
</g>
</g>
<!-- Node1&#45;&gt;Node10 -->
<g id="edge9" class="edge">
<title>Node1&#45;&gt;Node10</title>
<path fill="none" stroke="midnightblue" d="M392.51,-57.99C438.99,-49.14 501.81,-36.36 565.48,-20.08"/>
<polygon fill="midnightblue" stroke="midnightblue" points="566.48,-23.43 575.29,-17.54 564.73,-16.66 566.48,-23.43"/>
</g>
</g>
</svg>
